<svg id="visual" viewBox="0 0 540 960" width="540" height="960" xmlns="http://www.w3.org/2000/svg" xmlns:xlink="http://www.w3.org/1999/xlink" version="1.1"><rect x="0" y="0" width="540" height="960" fill="#131415"></rect><defs><linearGradient id="grad1_0" x1="0%" y1="0%" x2="100%" y2="100%"><stop offset="30%" stop-color="#131415" stop-opacity="1"></stop><stop offset="70%" stop-color="#131415" stop-opacity="1"></stop></linearGradient></defs><defs><linearGradient id="grad2_0" x1="0%" y1="0%" x2="100%" y2="100%"><stop offset="30%" stop-color="#131415" stop-opacity="1"></stop><stop offset="70%" stop-color="#131415" stop-opacity="1"></stop></linearGradient></defs><g transform="translate(540, 0)"><path d="M0 243C-14 242.2 -28.1 241.3 -42.2 239.3C-56.3 237.3 -70.4 234.1 -82.8 227.4C-95.1 220.7 -105.6 210.6 -117 202.6C-128.4 194.7 -140.8 189.1 -152.3 181.6C-163.9 174 -174.7 164.7 -183.1 153.6C-191.5 142.6 -197.5 129.9 -203.5 117.5C-209.5 105.1 -215.5 92.9 -220.8 80.4C-226.1 67.8 -230.8 54.8 -234.4 41.3C-238 27.9 -240.5 13.9 -243 0L0 0Z" fill="#C7C6D3"></path></g><g transform="translate(0, 960)"><path d="M0 -243C14.6 -242.9 29.1 -242.9 41.8 -237.3C54.6 -231.8 65.4 -220.8 78.7 -216.1C91.9 -211.5 107.7 -213.1 120 -207.8C132.3 -202.6 141.2 -190.4 151.7 -180.8C162.1 -171.2 174.1 -164.2 184.6 -154.9C195.1 -145.6 204.1 -134.1 210.4 -121.5C216.8 -108.9 220.5 -95.2 224.6 -81.7C228.7 -68.3 233.2 -55.2 236.4 -41.7C239.5 -28.1 241.2 -14.1 243 0L0 0Z" fill="#C7C6D3"></path></g></svg>