<svg id="visual" viewBox="0 0 960 540" width="960" height="540" xmlns="http://www.w3.org/2000/svg" xmlns:xlink="http://www.w3.org/1999/xlink" version="1.1"><rect x="0" y="0" width="960" height="540" fill="#131415"></rect><defs><linearGradient id="grad1_0" x1="43.8%" y1="0%" x2="100%" y2="100%"><stop offset="14.444444444444446%" stop-color="#131415" stop-opacity="1"></stop><stop offset="85.55555555555554%" stop-color="#131415" stop-opacity="1"></stop></linearGradient></defs><defs><linearGradient id="grad2_0" x1="0%" y1="0%" x2="56.3%" y2="100%"><stop offset="14.444444444444446%" stop-color="#131415" stop-opacity="1"></stop><stop offset="85.55555555555554%" stop-color="#131415" stop-opacity="1"></stop></linearGradient></defs><g transform="translate(960, 0)"><path d="M0 243C-15 237.5 -29.9 231.9 -45.7 229.5C-61.4 227.1 -77.9 227.8 -92.2 222.7C-106.5 217.5 -118.6 206.6 -132.2 197.9C-145.9 189.2 -161 182.9 -171.8 171.8C-182.6 160.8 -189 145.1 -195.4 130.6C-201.8 116 -208.1 102.6 -214.3 88.8C-220.6 75 -226.7 60.9 -231.5 46C-236.2 31.2 -239.6 15.6 -243 0L0 0Z" fill="#C7C6D3"></path></g><g transform="translate(0, 540)"><path d="M0 -243C14.9 -236.7 29.8 -230.4 45.3 -227.5C60.7 -224.7 76.7 -225.2 91.5 -220.8C106.2 -216.4 119.6 -207.1 131.7 -197.1C143.7 -187 154.3 -176.2 165.5 -165.5C176.6 -154.7 188.4 -144 196.2 -131.1C204.1 -118.2 208 -103.2 215.3 -89.2C222.5 -75.1 233.2 -62.1 238.3 -47.4C243.5 -32.7 243.3 -16.4 243 0L0 0Z" fill="#C7C6D3"></path></g></svg>